<svg width="24" height="24" viewBox="0 0 24 24" fill="none" xmlns="http://www.w3.org/2000/svg">
<path d="M11.1328 0.309369C11.0578 0.318744 10.7906 0.351557 10.5469 0.379682C8.50781 0.60937 6.47343 1.46249 4.73437 2.80781C4.21874 3.20624 3.20156 4.22343 2.80312 4.73906C1.49999 6.41718 0.717181 8.25468 0.389056 10.3922C0.281244 11.0953 0.281244 12.9047 0.389056 13.6078C0.914056 17.0156 2.69999 19.8609 5.48437 21.7266C7.03124 22.7625 8.62031 23.3578 10.5703 23.6344C11.2031 23.7234 12.9281 23.7094 13.6172 23.6109C15.3656 23.3531 17.0437 22.7109 18.4687 21.7594C21.3609 19.8234 23.1375 16.9547 23.6344 13.4297C23.7141 12.8719 23.7094 11.1187 23.6297 10.5469C23.2172 7.57031 21.7828 4.92656 19.5703 3.06093C17.8969 1.64531 15.8109 0.707807 13.6406 0.398432C13.1344 0.323432 11.4516 0.262494 11.1328 0.309369ZM9.52968 5.92499L9.66093 6.03281L9.17812 6.18281C8.11874 6.52031 7.06406 7.01249 6.24843 7.56093C5.98124 7.73437 5.76562 7.88906 5.76562 7.89374C5.76562 7.90312 6.02812 7.79531 6.35156 7.65468C8.45156 6.75468 10.7906 6.32343 12.7641 6.46406C14.4937 6.59531 16.0594 6.97499 17.6578 7.65937C17.9766 7.79999 18.2344 7.90312 18.2344 7.89374C18.2344 7.88906 18.0187 7.73437 17.7562 7.56093C16.9359 7.01249 15.825 6.49687 14.7516 6.16406L14.3344 6.03281L14.4703 5.92031C14.5875 5.82187 14.6297 5.81249 14.9297 5.84062C16.1344 5.94374 17.4797 6.41249 18.5531 7.10624L18.9844 7.38281L19.3312 8.08593C20.4656 10.3828 21.1547 12.9844 21.2672 15.375L21.2953 16.0078L20.9578 16.3359C19.8234 17.4281 18.4359 18.0328 16.7344 18.1641L16.3359 18.1922L16.1437 17.9672C16.0406 17.8453 15.8109 17.5641 15.6328 17.3484L15.3141 16.95L15.6844 16.8234C16.4719 16.5609 17.1844 16.1531 17.7328 15.6562C18.1781 15.2531 18.1406 15.2156 17.5875 15.525C16.1484 16.3312 14.7516 16.7812 13.2422 16.9266C12.4125 17.0062 10.7203 16.9594 10.0078 16.8328C9.29999 16.7062 8.69999 16.5422 8.02031 16.2797C7.49531 16.0781 6.55781 15.6281 6.20624 15.4125C5.88281 15.2109 5.89218 15.2156 5.94843 15.3187C5.97656 15.3703 6.10781 15.5109 6.24374 15.6328C6.81093 16.1437 7.53749 16.5656 8.29218 16.8187L8.68593 16.95L8.30624 17.4187C8.09531 17.6719 7.86562 17.9531 7.79062 18.0422L7.65468 18.2016L7.07343 18.1453C5.44687 17.9812 4.13906 17.3906 3.03749 16.3312L2.70468 16.0078L2.73281 15.375C2.84531 12.9844 3.53437 10.3828 4.66874 8.08593L5.01562 7.38281L5.44687 7.10624C6.29531 6.55781 7.44843 6.09843 8.39062 5.93437C9.19218 5.78906 9.36562 5.78906 9.52968 5.92499Z" fill="white"/>
<path d="M8.69533 11.3109C8.25002 11.4609 7.9172 11.7422 7.70158 12.15C7.58439 12.375 7.57033 12.4453 7.57033 12.8906C7.57033 13.4859 7.65939 13.7156 8.04377 14.0953C8.63908 14.6719 9.59064 14.6906 10.2141 14.1281C11.0813 13.35 10.8656 11.9109 9.80158 11.4094C9.49689 11.264 8.97658 11.2172 8.69533 11.3109Z" fill="white"/>
<path d="M14.5031 11.2922C13.6781 11.5031 13.1156 12.3563 13.2609 13.1578C13.4156 13.9875 14.0484 14.5312 14.8594 14.5312C15.314 14.5312 15.6609 14.3953 15.9609 14.0906C16.3406 13.7109 16.4297 13.4813 16.4297 12.8906C16.4297 12.45 16.4156 12.375 16.3031 12.1641C16.0265 11.6297 15.5203 11.2969 14.9578 11.2688C14.7891 11.2594 14.5828 11.2688 14.5031 11.2922Z" fill="white"/>
</svg>
