<svg width="24" height="24" viewBox="0 0 24 24" fill="none" xmlns="http://www.w3.org/2000/svg">
<path d="M11.1328 0.309369C11.0578 0.318744 10.7906 0.351557 10.5469 0.379682C8.50781 0.60937 6.47343 1.46249 4.73437 2.80781C4.21874 3.20624 3.20156 4.22343 2.80312 4.73906C1.50468 6.41249 0.717181 8.26406 0.389056 10.3922C0.281244 11.0953 0.281244 12.9047 0.389056 13.6078C0.914056 17.0156 2.69999 19.8609 5.48437 21.7266C7.03124 22.7625 8.62031 23.3578 10.5703 23.6344C11.2031 23.7234 12.9281 23.7094 13.6172 23.6109C15.3656 23.3531 17.0437 22.7109 18.4687 21.7594C21.3609 19.8234 23.1375 16.9547 23.6344 13.4297C23.7141 12.8719 23.7094 11.1187 23.6297 10.5469C23.2172 7.57031 21.7828 4.92656 19.5703 3.06093C17.8969 1.64531 15.8109 0.707807 13.6406 0.398432C13.1344 0.323432 11.4516 0.262494 11.1328 0.309369ZM15.45 4.87968C16.1062 4.94999 16.5562 5.07656 17.0859 5.33906C18.0328 5.80781 18.6141 6.48281 18.9656 7.51406C19.2094 8.23124 19.2187 8.37187 19.2187 12C19.2187 14.7469 19.2047 15.4359 19.1484 15.7547C18.8062 17.7141 17.5125 18.8906 15.4453 19.125C14.8828 19.1859 9.10781 19.1859 8.55468 19.125C7.04062 18.9516 5.90156 18.2531 5.31562 17.1422C5.09999 16.7297 4.93593 16.2422 4.85156 15.7547C4.74843 15.1781 4.74843 8.82187 4.85156 8.24531C4.98281 7.48124 5.29218 6.77343 5.71406 6.25781C6.30937 5.53124 7.35937 5.01093 8.48437 4.87968C9.00937 4.81874 14.9109 4.81874 15.45 4.87968Z" fill="white"/>
<path d="M10.1953 6.19219C8.28283 6.225 8.16095 6.23906 7.51877 6.54375C6.91877 6.825 6.4172 7.48594 6.20627 8.27344C6.12189 8.57813 6.1172 8.82188 6.1172 12C6.1172 15.1781 6.12189 15.4219 6.20627 15.7266C6.4172 16.5141 6.91877 17.175 7.51877 17.4563C8.16095 17.7609 8.27814 17.775 10.2328 17.8078C11.2031 17.8219 12.7969 17.8219 13.7719 17.8078C15.7219 17.775 15.8391 17.7609 16.4813 17.4563C17.0813 17.175 17.5828 16.5141 17.7938 15.7266C17.8781 15.4219 17.8828 15.1781 17.8828 12C17.8828 8.82188 17.8781 8.57813 17.7938 8.27344C17.5828 7.48594 17.0813 6.825 16.4813 6.54375C15.8906 6.2625 15.661 6.225 14.4141 6.20625C13.7953 6.19688 12.9844 6.18281 12.6094 6.17344C12.2344 6.16875 11.1516 6.17813 10.1953 6.19219ZM16.1438 7.51875C16.2281 7.55625 16.3594 7.66406 16.4344 7.7625C16.5469 7.90781 16.5703 7.98281 16.5703 8.20781C16.5703 8.40938 16.5469 8.5125 16.4719 8.61094C16.1203 9.08438 15.4547 9.075 15.1735 8.5875C15.0563 8.38594 15.0563 8.025 15.1688 7.82813C15.3563 7.50938 15.7922 7.37344 16.1438 7.51875ZM12.8766 8.29688C14.611 8.70938 15.7969 10.2188 15.7969 12C15.7969 14.1281 14.1281 15.7969 12 15.7969C9.87658 15.7969 8.20314 14.1234 8.20314 12C8.20314 10.2281 9.3797 8.72344 11.1 8.29688C11.6016 8.175 12.3703 8.175 12.8766 8.29688Z" fill="white"/>
<path d="M11.25 9.67031C10.4391 9.94688 9.87658 10.5328 9.63752 11.3391C9.59533 11.4891 9.56252 11.7656 9.56252 12C9.56252 12.6844 9.80627 13.275 10.2703 13.7344C10.7438 14.2031 11.3203 14.4375 12 14.4375C12.6844 14.4375 13.275 14.1938 13.7344 13.7297C14.2031 13.2563 14.4375 12.6797 14.4375 12C14.4375 10.8797 13.7391 9.95625 12.661 9.6375C12.2766 9.525 11.6297 9.53906 11.25 9.67031Z" fill="white"/>
</svg>
