<svg width="24" height="24" viewBox="0 0 24 24" fill="none" xmlns="http://www.w3.org/2000/svg">
<path d="M11.1328 0.309431C11.0578 0.318806 10.7906 0.351618 10.5468 0.379743C8.50778 0.609431 6.4734 1.46256 4.73434 2.80787C4.21871 3.20631 3.20153 4.22349 2.80309 4.73912C1.50465 6.41256 0.717151 8.26412 0.389026 10.3922C0.281213 11.0954 0.281213 12.9047 0.389026 13.6079C0.914026 17.0157 2.69996 19.861 5.48434 21.7266C7.03121 22.7626 8.62028 23.3579 10.5703 23.6344C11.2031 23.7235 12.9281 23.7094 13.6172 23.611C15.3656 23.3532 17.0437 22.711 18.4687 21.7594C21.3609 19.8235 23.1375 16.9547 23.6343 13.4297C23.714 12.8719 23.7093 11.1188 23.6296 10.5469C23.2171 7.57037 21.7828 4.92662 19.5703 3.06099C17.8968 1.64537 15.8109 0.707868 13.6406 0.398493C13.1343 0.323493 11.4515 0.262556 11.1328 0.309431ZM15.45 4.87974C16.1062 4.95006 16.5562 5.07662 17.0859 5.33912C18.0328 5.80787 18.614 6.48287 18.9656 7.51412C19.2093 8.23131 19.2187 8.37193 19.2187 12.0001C19.2187 14.7469 19.2046 15.436 19.1484 15.7547C18.8062 17.7141 17.5125 18.8907 15.4453 19.1251C14.8828 19.186 9.10778 19.186 8.55465 19.1251C7.04059 18.9516 5.90153 18.2532 5.31559 17.1422C5.09996 16.7297 4.9359 16.2422 4.85153 15.7547C4.7484 15.1782 4.7484 8.82193 4.85153 8.24537C4.98278 7.48131 5.29215 6.77349 5.71403 6.25787C6.30934 5.53131 7.35934 5.01099 8.48434 4.87974C9.00934 4.81881 14.9109 4.81881 15.45 4.87974Z" fill="white"/>
<path d="M10.1953 6.19219C8.28281 6.225 8.16094 6.23906 7.51875 6.54375C6.91875 6.825 6.41719 7.48594 6.20625 8.27344C6.12188 8.57813 6.11719 8.82188 6.11719 12C6.11719 15.1781 6.12188 15.4219 6.20625 15.7266C6.41719 16.5141 6.91875 17.175 7.51875 17.4563C8.16094 17.7609 8.27813 17.775 10.2328 17.8078C11.2031 17.8219 12.7969 17.8219 13.7719 17.8078C15.7219 17.775 15.8391 17.7609 16.4813 17.4563C17.0813 17.175 17.5828 16.5141 17.7938 15.7266C17.8781 15.4219 17.8828 15.1781 17.8828 12C17.8828 8.82188 17.8781 8.57813 17.7938 8.27344C17.5828 7.48594 17.0813 6.825 16.4813 6.54375C15.8906 6.2625 15.6609 6.225 14.4141 6.20625C13.7953 6.19688 12.9844 6.18281 12.6094 6.17344C12.2344 6.16875 11.1516 6.17813 10.1953 6.19219ZM16.1438 7.51875C16.2281 7.55625 16.3594 7.66406 16.4344 7.7625C16.5469 7.90781 16.5703 7.98281 16.5703 8.20781C16.5703 8.40938 16.5469 8.5125 16.4719 8.61094C16.1203 9.08438 15.4547 9.075 15.1734 8.5875C15.0563 8.38594 15.0563 8.025 15.1688 7.82813C15.3563 7.50938 15.7922 7.37344 16.1438 7.51875ZM12.8766 8.29688C14.6109 8.70938 15.7969 10.2188 15.7969 12C15.7969 14.1281 14.1281 15.7969 12 15.7969C9.87656 15.7969 8.20313 14.1234 8.20313 12C8.20313 10.2281 9.37969 8.72344 11.1 8.29688C11.6016 8.175 12.3703 8.175 12.8766 8.29688Z" fill="white"/>
<path d="M11.25 9.67037C10.4391 9.94694 9.87656 10.5329 9.6375 11.3391C9.59531 11.4891 9.5625 11.7657 9.5625 12.0001C9.5625 12.6844 9.80625 13.2751 10.2703 13.7344C10.7438 14.2032 11.3203 14.4376 12 14.4376C12.6844 14.4376 13.275 14.1938 13.7344 13.7297C14.2031 13.2563 14.4375 12.6797 14.4375 12.0001C14.4375 10.8797 13.7391 9.95631 12.6609 9.63756C12.2766 9.52506 11.6297 9.53912 11.25 9.67037Z" fill="white"/>
</svg>
