<svg width="24" height="24" viewBox="0 0 24 24" fill="none" xmlns="http://www.w3.org/2000/svg">
<path d="M10.8516 0.0516066C7.84687 0.360982 5.175 1.70629 3.12187 3.93754C0.224999 7.08286 -0.745313 11.6438 0.609374 15.75C1.22344 17.611 2.19375 19.1672 3.61406 20.5641C5.49844 22.4157 7.78594 23.5266 10.5234 23.9157C11.0812 23.9954 12.9234 23.9907 13.5 23.911C16.2469 23.5313 18.6141 22.3594 20.5172 20.4329C22.4109 18.5157 23.5219 16.2422 23.9156 13.4766C23.9953 12.9235 23.9953 11.0766 23.9156 10.5235C23.6906 8.9438 23.2313 7.5188 22.5328 6.25786C21.9844 5.25942 21.3469 4.40629 20.5172 3.56723C18.6516 1.67817 16.3312 0.506294 13.6641 0.112544C13.0875 0.0281691 11.4234 -0.00933094 10.8516 0.0516066ZM17.6016 7.28442C17.8078 7.37348 17.9062 7.57036 17.9062 7.89848C17.9062 8.19848 15.9234 17.611 15.8203 17.8172C15.6703 18.1079 15.3469 18.2157 15.0187 18.0938C14.9062 18.0516 13.8234 17.2688 12.2391 16.0922L11.8453 15.8016L10.9969 16.6125C10.3734 17.2032 10.1016 17.4375 9.98906 17.461C9.90469 17.4797 9.825 17.4844 9.81562 17.4704C9.80156 17.4563 9.83437 16.7766 9.89062 15.9516L9.98906 14.461L10.3219 14.1563C10.5 13.9875 11.7703 12.8391 13.1391 11.6016C14.5125 10.3594 15.6328 9.3188 15.6328 9.2813C15.6328 9.22973 15.5812 9.21098 15.4687 9.21567C15.3328 9.22036 14.6391 9.63755 11.8266 11.4047C9.91875 12.6094 8.32969 13.5938 8.30156 13.5938C8.175 13.5938 5.21719 12.6422 5.07656 12.5579C4.77656 12.3704 4.84219 12.0938 5.23125 11.8735C5.33437 11.8172 6.07969 11.5125 6.89062 11.2032C7.70156 10.8891 9.23437 10.2985 10.2891 9.89067C11.3484 9.48286 13.2328 8.7563 14.4844 8.27348C17.2266 7.21411 17.1984 7.22348 17.3344 7.2188C17.3906 7.2188 17.5125 7.24692 17.6016 7.28442Z" fill="white"/>
</svg>
