<svg width="24" height="24" viewBox="0 0 24 24" fill="none" xmlns="http://www.w3.org/2000/svg">
<path d="M10.8516 0.0515455C7.84687 0.360921 5.175 1.70623 3.12187 3.93748C0.224999 7.0828 -0.745313 11.6437 0.609374 15.75C1.22344 17.6109 2.19375 19.1672 3.61406 20.564C5.49844 22.4156 7.78594 23.5265 10.5234 23.9156C11.0812 23.9953 12.9234 23.9906 13.5 23.9109C16.2469 23.5312 18.6141 22.3594 20.5172 20.4328C22.4109 18.5156 23.5219 16.2422 23.9156 13.4765C23.9953 12.9234 23.9953 11.0765 23.9156 10.5234C23.6906 8.94373 23.2313 7.51873 22.5328 6.2578C21.9844 5.25936 21.3469 4.40623 20.5172 3.56717C18.6516 1.67811 16.3312 0.506233 13.6641 0.112483C13.0875 0.028108 11.4234 -0.00939197 10.8516 0.0515455ZM17.6016 7.28436C17.8078 7.37342 17.9062 7.5703 17.9062 7.89842C17.9062 8.19842 15.9234 17.6109 15.8203 17.8172C15.6703 18.1078 15.3469 18.2156 15.0187 18.0937C14.9062 18.0515 13.8234 17.2687 12.2391 16.0922L11.8453 15.8015L10.9969 16.6125C10.3734 17.2031 10.1016 17.4375 9.98906 17.4609C9.90469 17.4797 9.825 17.4844 9.81562 17.4703C9.80156 17.4562 9.83437 16.7765 9.89062 15.9515L9.98906 14.4609L10.3219 14.1562C10.5 13.9875 11.7703 12.839 13.1391 11.6015C14.5125 10.3594 15.6328 9.31873 15.6328 9.28123C15.6328 9.22967 15.5812 9.21092 15.4687 9.21561C15.3328 9.2203 14.6391 9.63748 11.8266 11.4047C9.91875 12.6094 8.32969 13.5937 8.30156 13.5937C8.175 13.5937 5.21719 12.6422 5.07656 12.5578C4.77656 12.3703 4.84219 12.0937 5.23125 11.8734C5.33437 11.8172 6.07969 11.5125 6.89062 11.2031C7.70156 10.889 9.23437 10.2984 10.2891 9.89061C11.3484 9.4828 13.2328 8.75623 14.4844 8.27342C17.2266 7.21405 17.1984 7.22342 17.3344 7.21873C17.3906 7.21873 17.5125 7.24686 17.6016 7.28436Z" fill="white"/>
</svg>
