<svg width="24" height="24" viewBox="0 0 24 24" fill="none" xmlns="http://www.w3.org/2000/svg">
<path d="M10.8797 0.0469305C4.59845 0.656306 -0.187489 6.06099 0.0140731 12.3282C0.0750106 14.1516 0.468761 15.7313 1.27032 17.3391C2.43751 19.6922 4.30314 21.5579 6.66095 22.7297C10.4813 24.6329 15 24.3704 18.5625 22.0407C19.9547 21.1313 21.2766 19.7813 22.1766 18.3469C22.5235 17.8032 23.0391 16.7438 23.2735 16.1063C23.5125 15.4594 23.7891 14.3438 23.8875 13.6172C23.9953 12.8813 24.0094 11.1751 23.9156 10.5235C23.6391 8.57818 23.0203 6.9188 21.9938 5.37193C21.5625 4.71568 21.1266 4.18131 20.5172 3.56724C18.6469 1.67818 16.3219 0.506306 13.6641 0.112556C13.0922 0.0281805 11.4797 -0.0093195 10.8797 0.0469305ZM14.5641 6.14537C14.7891 7.18599 15.3141 7.92193 16.0922 8.29224C16.4906 8.48443 16.9828 8.62505 17.2406 8.62505H17.3906V9.6563V10.6876H17.1235C16.4719 10.6876 15.7969 10.4954 15.0235 10.0969C14.7516 9.9563 14.5172 9.8438 14.5031 9.8438C14.4938 9.8438 14.4938 10.2938 14.5125 10.8376C14.5453 12.1126 14.4656 14.4938 14.3719 14.9063C14.1375 15.9235 13.6078 16.8001 12.8531 17.3954C11.3578 18.5907 9.52033 18.6188 8.07189 17.4751C7.49532 17.0157 6.97032 16.1766 6.74532 15.3516C6.61876 14.8829 6.57189 13.8704 6.65626 13.4391C6.92345 12.0751 8.02033 10.8797 9.39376 10.4579C9.76876 10.3407 10.4766 10.2188 10.7719 10.2188H10.9688V11.2688V12.3188L10.6313 12.3985C9.48751 12.6751 8.98126 13.0313 8.71408 13.7297C8.57345 14.1094 8.60158 14.686 8.78439 15.0469C9.17345 15.8157 9.80626 16.2001 10.6313 16.1626C11.4797 16.1297 11.9953 15.6797 12.2906 14.7188L12.3985 14.3672L12.4125 10.0172L12.4266 5.67193H13.4438H14.461L14.5641 6.14537Z" fill="white"/>
</svg>
