<svg width="24" height="24" viewBox="0 0 24 24" fill="none" xmlns="http://www.w3.org/2000/svg">
<path d="M10.8797 0.0468695C4.59845 0.656244 -0.187489 6.06093 0.0140731 12.3281C0.0750106 14.1516 0.468761 15.7312 1.27032 17.3391C2.43751 19.6922 4.30314 21.5578 6.66095 22.7297C10.4813 24.6328 15 24.3703 18.5625 22.0406C19.9547 21.1312 21.2766 19.7812 22.1766 18.3469C22.5235 17.8031 23.0391 16.7437 23.2735 16.1062C23.5125 15.4594 23.7891 14.3437 23.8875 13.6172C23.9953 12.8812 24.0094 11.175 23.9156 10.5234C23.6391 8.57812 23.0203 6.91874 21.9938 5.37187C21.5625 4.71562 21.1266 4.18124 20.5172 3.56718C18.6469 1.67812 16.3219 0.506244 13.6641 0.112494C13.0922 0.0281195 11.4797 -0.00938053 10.8797 0.0468695ZM14.5641 6.14531C14.7891 7.18593 15.3141 7.92187 16.0922 8.29218C16.4906 8.48437 16.9828 8.62499 17.2406 8.62499H17.3906V9.65624V10.6875H17.1235C16.4719 10.6875 15.7969 10.4953 15.0235 10.0969C14.7516 9.95624 14.5172 9.84374 14.5031 9.84374C14.4938 9.84374 14.4938 10.2937 14.5125 10.8375C14.5453 12.1125 14.4656 14.4937 14.3719 14.9062C14.1375 15.9234 13.6078 16.8 12.8531 17.3953C11.3578 18.5906 9.52033 18.6187 8.07189 17.475C7.49532 17.0156 6.97032 16.1766 6.74532 15.3516C6.61876 14.8828 6.57189 13.8703 6.65626 13.4391C6.92345 12.075 8.02033 10.8797 9.39376 10.4578C9.76876 10.3406 10.4766 10.2187 10.7719 10.2187H10.9688V11.2687V12.3187L10.6313 12.3984C9.48751 12.675 8.98126 13.0312 8.71408 13.7297C8.57345 14.1094 8.60158 14.6859 8.78439 15.0469C9.17345 15.8156 9.80626 16.2 10.6313 16.1625C11.4797 16.1297 11.9953 15.6797 12.2906 14.7187L12.3985 14.3672L12.4125 10.0172L12.4266 5.67187H13.4438H14.461L14.5641 6.14531Z" fill="white"/>
</svg>
