<svg width="24" height="24" viewBox="0 0 24 24" fill="none" xmlns="http://www.w3.org/2000/svg">
<path d="M10.8516 0.0515478C7.10158 0.44061 3.81564 2.47967 1.81877 5.6578C-1.01248 10.1578 -0.482793 16.1109 3.09377 20.025C5.07658 22.1953 7.55158 23.4937 10.5235 23.9156C11.0766 23.9953 12.9188 23.9906 13.5 23.9156C16.2141 23.5406 18.6422 22.3359 20.4891 20.4515C21.0985 19.8328 21.225 19.6875 21.6281 19.1531C22.8281 17.5547 23.611 15.6047 23.9156 13.4765C23.9953 12.9234 23.9953 11.0765 23.9156 10.5234C23.7141 9.10311 23.3438 7.89374 22.7578 6.7078C22.1297 5.45155 21.4922 4.55624 20.4938 3.54842C18.6422 1.67342 16.3266 0.506235 13.6641 0.112485C13.0875 0.0281103 11.4235 -0.00938969 10.8516 0.0515478ZM14.6016 6.79686C17.4891 6.89999 18.1031 7.01249 18.6469 7.51874C19.0969 7.94061 19.2844 8.49842 19.411 9.8203C19.4906 10.6359 19.4953 13.2422 19.4156 14.0859C19.2938 15.3609 19.1766 15.8437 18.8953 16.2187C18.5063 16.7344 18.1219 16.9312 17.2594 17.039C14.9485 17.3297 8.24533 17.3015 6.45939 16.9922C5.54064 16.8328 4.95939 16.289 4.76721 15.3984C4.54221 14.3765 4.44377 12.225 4.54689 10.5703C4.66408 8.64374 4.80471 8.0953 5.30158 7.5703C5.72814 7.1203 6.13127 6.99374 7.47658 6.89061C9.12658 6.75936 12.4266 6.71717 14.6016 6.79686Z" fill="white"/>
<path d="M10.5 12V14.25L10.725 14.1234C13.6078 12.4734 14.3859 12.0187 14.3859 12C14.3859 11.9812 13.6078 11.5266 10.725 9.87656L10.5 9.75V12Z" fill="white"/>
</svg>
